# xmcd
#
# Track frame offsets: 
#        150
#        13680
#        27837
#        41914
#        67296
#        84054
#        97206
#        115009
#        129589
#        142188
#        153468
#        166405
#
# Disc length: 2508 seconds
#
# Revision: 3
# Processed by: cddbd v1.5.2PL0 Copyright (c) Steve Scherf et al.
# Submitted via: ExactAudioCopy v0.99pb5
#
DISCID=a509ca0c
DTITLE=Various Artist - Road Trippin' Blues (Vol. 2)
DYEAR=2001
DGENRE=Blues
TTITLE0=Joe Turner - Shake, Rattle And Roll
TTITLE1=Jimmy Witherspoon - Ain't Nobodys Business
TTITLE2=Muddy Waters - Rollin' Stone
TTITLE3=Billie Holiday - One For My Baby
TTITLE4=Memphis Slim - I Just Landed In Your Town
TTITLE5=Bessie Smith - Standin' In The Rain
TTITLE6=Otis Spann - Going Down Slow
TTITLE7=John Lee Hooker - Don't Go Baby
TTITLE8=Leadbelly - When A Man's A Long Way From Home
TTITLE9=Big Joe Williams - Jinx Blues
TTITLE10=Champion Jack Dupree - Highway Blues
TTITLE11=Lightnin' Hopkins - Goin' Back Home
EXTD=YEAR: 2001 ID3G: 0
EXTT0=
EXTT1=
EXTT2=
EXTT3=
EXTT4=
EXTT5=
EXTT6=
EXTT7=
EXTT8=
EXTT9=
EXTT10=
EXTT11=
PLAYORDER=
